<?xml version="1.0" encoding="utf-8"?>

<!-- Uploaded to: SVG Repo, www.svgrepo.com, Generator: SVG Repo Mixer Tools -->
<svg width="800px" height="800px" viewBox="0 0 32 32" fill="none" xmlns="http://www.w3.org/2000/svg">
<g clip-path="url(#clip0_901_2684)">
<path d="M31 4V26C31 26.55 30.55 27 30 27H26V8C26 7.45 25.55 7 25 7H21V3H30C30.55 3 31 3.45 31 4Z" fill="#668077"/>
<path d="M26 27V30C26 30.55 25.55 31 25 31H7C6.45 31 6 30.55 6 30V25V8C6 7.45 6.45 7 7 7H21H25C25.55 7 26 7.45 26 8V27Z" fill="#FFE6EA"/>
<path d="M21 3V7H7C6.45 7 6 7.45 6 8V25H2C1 25 1 24 1 24V2C1 1.45 1.45 1 2 1H20C20.55 1 21 1.45 21 2V3Z" fill="#FFC44D"/>
<path d="M12 13H15M12 16H20M12 20H20M12 24H20M21 7V2C21 1.447 20.553 1 20 1H2C1.447 1 1 1.447 1 2V24C1 24 1 25 2 25H3M26 27H30C30.553 27 31 26.553 31 26V4C31 3.447 30.553 3 30 3H24M26 30C26 30.553 25.553 31 25 31H7C6.447 31 6 30.553 6 30V8C6 7.447 6.447 7 7 7H25C25.553 7 26 7.447 26 8V30Z" stroke="#000000" stroke-width="2" stroke-linecap="round" stroke-linejoin="round"/>
</g>
<defs>
<clipPath id="clip0_901_2684">
<rect width="32" height="32" fill="white"/>
</clipPath>
</defs>
</svg>