<?xml version="1.0" encoding="UTF-8"?>
<svg version="1.1" viewBox="0 0 1024 1024" width="1280" height="1280" xmlns="http://www.w3.org/2000/svg">
<path transform="translate(0)" d="m0 0h1024v1024h-1024z" fill="#023451"/>
<path transform="translate(506,232)" d="m0 0h14l12 3 12 6 10 9 6 7 5 11 3 11 1 7 26 13 22 12 39 20 22 12 35 18 22 12 33 17 19 10 27 14 28 15 29 15 22 12 23 12 17 10 7 7 4 8 1 6v52l-6 12-4 5-8 6-13 6-16 8-17 9-16 8-45 23-25 13-19 10-23 12-22 12-16 8-37 19-22 12-24 12-19 10-23 12-27 14-16 8-13 4-14 2h-18l-20-4-18-8-16-9-16-8-39-20-19-10-22-12-16-8-45-23-42-22-19-10-31-16-19-10-27-14-38-20-21-10-8-7-6-10-1-3v-53l4-11 9-10 22-12 10-6 40-21 28-15 16-8 19-10 23-12 28-15 4-2-1-8 4-5 7-3h12l7 1 41-21 8-5 42-21 19-10 23-12 14-8 3-16 7-14 9-10 11-7 9-4z" fill="#FCA704"/>
<path transform="translate(473,391)" d="m0 0h19l15 15 7 8 5 8 5 7v27l-1 30 6 3 4-1 8-10 12-14 9-11 18-21 2-1 29-2h17l26 8 12 7 3 3-2 5-6 4h-26l-37-2-8 8-9 11-12 14-14 17-1 3 6 2 49-9 28-5h6l28 13 18 8 16 13 10 10 2 5-5 3-5 1h-11l-16-7-24-12-15-8h-8l-60 9h-7l-7 4 7 6-1 7-4 3-3 1h-12l-6-3-3-5 1-3-9 1-1 6 20 14 14 10 2 1 8 36 4 21v10l-6 12-5 1-6-3-8-10-3-4-3 2v7l-3 6-9 6-13 3h-9l-9-2-6 1-42 22-15 8-14 7 4 3 16 8 23 12 12 6 16 4 8 1h13l16-2 15-4 16-8 29-15 19-10 18-10 16-8 22-12h4v-2l8-4h4v-2l25-13 19-10 28-15 17-9 16-8 23-12 25-13 19-10 25-13 19-10 25-13 9-6h2l2-4 5-8 1-9h1v52l-6 12-4 5-8 6-13 6-16 8-17 9-16 8-45 23-25 13-19 10-23 12-22 12-16 8-37 19-22 12-24 12-19 10-23 12-27 14-16 8-13 4-14 2h-18l-20-4-18-8-16-9-16-8-39-20-19-10-22-12-16-8-45-23-42-22-19-10-31-16-19-10-27-14-38-20-21-10-8-7-6-10-1-3v-53l4-11 9-10 22-12 10-6 3-1 8 4 26 11 39 18 18 8 7-1 8-2h15l16 5 9 7 1 1 27-1 35-2h16l13 5 4 3 5-1 11-5 19 5 1-1-19-14-14-10-12-8-10 1-27 6-27 7h-8l-4-2 1-7 7-7 24-15 17-3 31-4 5 1 17 13v-25l4-13 9-10 9-4 3-1h21l11 2 15 6 12 7 6 5v2h2v2h2l8 14 3 10 2 17 1-11 1-40-4-2-11-12-3-4-26-4-6-4-7-6-1-4 3-2 18-2z" fill="#F86E1D"/>
<path transform="translate(111,580)" d="m0 0 7 3 25 13 16 8 35 18 22 12 24 12 42 22 33 17 23 12 19 10 35 18 67 35 16 8 11 4 16 3h18l18-3 16-6 19-10 23-12 35-18 19-10 22-12 16-8 39-20 53-28 35-18 19-10 37-19 19-10 18-9 5 1 14 8 8 4 7 6 4 8v11l-3 7-4 5-5 4-15 9-17 8-19 10-15 8-16 8-13 7h-3v2h-4v2l-16 8-11 6-7 3-19 10-23 12-17 9-8 4h-3v2l-8 3-16 9-16 8-19 10-16 8-19 10-14 7-16 9-7 3-15 8-17 9-16 5-13 3-14 1h-17l-19-2-16-4-13-5-17-9-11-6-23-12-19-10-16-8-11-5v-2l-6-2-15-8-16-8-23-12-16-8v-2l-5-1-7-4-4-1v-2l-4-1-16-8-29-15-3-1v-2l-4-1-32-16-17-9-14-7-16-9-23-11-12-7-7-4-9-9v-2h-2l-2-6v-11l2-7 7-6 1-2 13-6h3v-2l6-3z" fill="#011D30"/>
<path transform="translate(473,391)" d="m0 0h19l15 15 7 8 5 8 5 7v27l-1 30 6 3 4-1 8-10 12-14 9-11 18-21 2-1 29-2h17l26 8 12 7 3 3-2 5-6 4h-26l-37-2-8 8-9 11-12 14-14 17-1 3 6 2 49-9 28-5h6l28 13 18 8 16 13 10 10 2 5-5 3-5 1h-11l-16-7-24-12-15-8h-8l-60 9h-7l-7 4 7 6-1 7-4 3-3 1h-12l-6-3-3-5 1-3-9 1-1 6 20 14 14 10 2 1 8 36 4 21v10l-6 12-5 1-6-3-8-10-6-16-6-36-17-13-14-11-4-3-5 1-27 14-9 5h-2l-2 6-13 30-7 12-10 10-8 6-5-1-2-3-1-8 2-16 4-15 13-23 10-16 8-5 20-10 12-7-5-4-27 5-7 1h-9l-42-8h-5l-32 21-18 12-11 4-9 1-4-2-1-6 5-10 6-7 4-5 19-13 16-9 16-8 7-3 19 5 1-1-19-14-14-10-12-8-10 1-27 6-27 7h-8l-4-2 1-7 7-7 24-15 17-3 31-4 5 1 17 13v-25l4-13 9-10 9-4 3-1h21l11 2 15 6 12 7 6 5v2h2v2h2l8 14 3 10 2 17 1-11 1-40-4-2-11-12-3-4-26-4-6-4-7-6-1-4 3-2 18-2z" fill="#017E9C"/>
<path transform="translate(350,342)" d="m0 0 6 1 15 7 25 11 15 6 32 6 25 10 7 3-2 6-26 2-9 2 2 5 9 7 7 2 21 3 11 12 5 6 2 1 1 3-1 37-1 14-2-3-3-21-5-12-4-6v-2h-2v-2h-2l-5-5-11-7-12-5-9-3-7-1h-21l-11 4-7 7-4 8-2 8v26l-9-6-10-8-20 2-29 4-8 4-16 10-9 8-2 7 4 1h8l35-9 24-5 7 1 14 10 18 13 14 10-4 1-20-5-12 6-4-1-10-5-6-2h-16l-52 3h-10l-7-6-8-4-11-3h-15l-11 3-6-1-35-16-31-14-22-9v-3l18-10 16-8 42-22 25-13 19-10 30-16 4-2-1-8 4-5 7-3h12l7 1z" fill="#FBFBF3"/>
<path transform="translate(506,232)" d="m0 0h14l12 3 12 6 10 9 6 7 5 11 3 11 1 7 26 13 22 12 39 20 22 12 25 13 1 2-18 10-16 8-29 15-18 10-7 6-10-3-16-5-27-12-28-12-5-3 5-9 3-3-1-3h-50l4 7 8 11v2l-23 1-20-8-11-4-33-7-23-10-25-11-2-2 22-12 39-20 19-10 15-8 1-1 3-16 7-14 9-10 11-7 9-4z" fill="#D5E6F5"/>
<path transform="translate(274,533)" d="m0 0 24 10 21 9-6 12v6l9 1 13-4 10-6 5-4 16-10 21-14 10 1 37 7h9l29-5 5-1 6 4-4 4-33 17-5 5-12 20-7 12-4 11-3 12-1 15 2 7 5 1 11-9 7-7 9-16 23 10 18 8v3l-1 2v9l3 6-14 8-58 30-5 3-6-2-15-8 2-6 6-12 1-3v-14l-3-6-7-7-3-4-4-18-3-5-9-6-18-6-19-2-34-3v9l21 1 33 3 12 4 5 3 3 6 3 16 7 9 6 5v14l-6 12-2 3-6-1-31-16-42-22-19-10-35-18-19-10-33-17-23-12-10-6 5-4 23-11 19-10 6-1 5 3 8 5 4 1h17l10-3 7-5h2v-2z" fill="#FBFBF3"/>
<path transform="translate(944,499)" d="m0 0h1v52l-6 12-4 5-8 6-13 6-16 8-17 9-16 8-45 23-25 13-19 10-23 12-22 12-16 8-37 19-22 12-24 12-19 10-23 12-27 14-16 8-13 4-14 2h-18l-20-4-7-3v-3l-4-1 5-3-6-9-1-9v-24l6 2 11 4 18 3h13l16-2 15-4 16-8 29-15 19-10 18-10 16-8 22-12h4v-2l8-4h4v-2l25-13 19-10 28-15 17-9 16-8 23-12 25-13 19-10 25-13 19-10 25-13 9-6h2l2-4 5-8z" fill="#FC7B06"/>
<path transform="translate(830,501)" d="m0 0 12 1 70 12 23 4-1 3-13 8-33 17-42 22-29 15-19 10-22 12-16 8-42 22-23 12-11 6-7-1-35-10-15-4-44-15-2-1 1-3 35-18 17-9 108-54 19-10 36-18h19l10-5z" fill="#FCFCF3"/>
<path transform="translate(713,363)" d="m0 0 5 1 29 15 88 46 22 12 29 15 44 24 10 9 4 8v8l-3 6-5 2-43-7-55-9-5-2-3-6-6-5-12-3-11 1-8 1-23-10-24-10-47-20-67-28-4-3 22-12 37-19 19-10z" fill="#FBFBF3"/>
<path transform="translate(111,580)" d="m0 0 6 2-4 4-7 4h-2l-2 4h-2l-1 4-2 5v11l6 10 1 3 4 2 10 6 18 8v2l5 1 14 7 19 10 26 13v2l8 2v2l5 1 7 4 4 1v2l6 2 25 13 17 9 40 20v2l5 1 7 4 4 1v2l6 2 15 8 16 8 38 20 10 5 7 4 4 1v2l5 1 7 4 4 1v2l5 2 22 11 14 6 12 3 7 1h24l13-2 10-3 40-20 13-7 10-5 3-2h3v-2l8-3 4-3h4v-2l12-6h4v-2l32-16 16-9 5-2h3v-2l17-8 20-11 9-4h2v-2l5-2h3v-2l12-6h4v-2l11-6 7-3 8-5 7-3 25-13 12-6h2v-2l10-4 6-4 8-3 4-3 14-7 13-7 14-7 5-5h2l2-6 1-2v-12l-4-8-8-7-3-1v-2l-4-2v-2l5 1 14 8 8 4 7 6 4 8v11l-3 7-4 5-5 4-15 9-17 8-19 10-15 8-16 8-13 7h-3v2h-4v2l-16 8-11 6-7 3-19 10-23 12-17 9-8 4h-3v2l-8 3-16 9-16 8-19 10-16 8-19 10-14 7-16 9-7 3-15 8-17 9-16 5-13 3-14 1h-17l-19-2-16-4-13-5-17-9-11-6-23-12-19-10-16-8-11-5v-2l-6-2-15-8-16-8-23-12-16-8v-2l-5-1-7-4-4-1v-2l-4-1-16-8-29-15-3-1v-2l-4-1-32-16-17-9-14-7-16-9-23-11-12-7-7-4-9-9v-2h-2l-2-6v-11l2-7 7-6 1-2 13-6h3v-2l6-3z" fill="#01273C"/>
<path transform="translate(619,416)" d="m0 0 7 1 65 27 31 13 26 11 30 13 11 5-1 9 3 5v3l-40 20-19 10-16 7-7-6-7-7-15-11-44-20-11 1-68 12-6 1-5-3 2-4 11-13 9-11 11-13 11-12 5-1 33 2h26l6-4 1-4-10-7-16-6-14-4h-26l4-4h2v-2z" fill="#FBFBF3"/>
<path transform="translate(576,630)" d="m0 0 10 2 43 15 41 11v2l-32 17-22 12-22 11-22 12-17 9-14 5-13 3-11 1h-13l-18-3-13-5-25-13-19-10-5-3 3-3 58-30 13-7 8 1 5 1h9l13-3 6-4 3-1 2-6v-7l5-3 9 13 4 3 7 1 6-12z" fill="#FBFBF3"/>
<path transform="translate(350,342)" d="m0 0 6 1 15 7 25 11 15 6 32 6 25 10 7 3-2 6-26 2-9 2 2 5 9 7 7 2 21 3 11 12 5 6 2 1 1 3-1 37-1 14-2-3-3-21-5-12-4-6v-2h-2v-2h-2l-5-5-11-7-12-5-9-3-7-1h-21l-11 4-7 7-4 8-2 8v26l-9-6-10-8-8-8v-2l-4-2-13-14-7-6v-2l-4-2-4-4v-2l-4-2-4-4v-2l-4-2-4-4v-2l-4-2-4-4v-2l-4-2-3-4-6-1-10 12-6 8-9-2-2-2 8-10 10-12-1-10 4-5 7-3h12l7 1z" fill="#FBFBF3"/>
<path transform="translate(568,287)" d="m0 0 5 1 22 11 22 12 39 20 22 12 25 13 1 2-18 10-16 8-29 15-18 10-7 6-10-3-16-5-27-12-28-12-5-3 5-9 3-3-2-7 6-10 13-20 8-16 3-9z" fill="#FBFBF3"/>
<path transform="translate(388,440)" d="m0 0 2 4 5 8 8 9 2 1v2l5 2 10 8 8 4v2l4 1 16 8 27 13 2 4 3 1-8 5h-2l-1 3-4 2-1 3h2l6 8v2l3 1v2l4 2-3 1-26 5-7 1h-9l-42-8h-5l-32 21-18 12-11 4-9 1-4-2-1-6 5-10 6-7 4-5 19-13 16-9 16-8 7-3 19 5 1-1-19-14-14-10-12-8-10 1-27 6-27 7h-8l-4-2 1-7 7-7 24-15 17-3 31-4 5 1 17 13v-25z" fill="#016C8A"/>
<path transform="translate(633,520)" d="m0 0h8l35 18 17 8 5 2-4 4-40 20-38 20-21 10-19 10-4 1-6-28-2-9v-4l-5-2-18-13-14-10 1-4 3-3h7l1 6 4 3 3 1h12l6-3 1-7-7-6 4-3 6-2 12-1z" fill="#FAFBF3"/>
<path transform="translate(110,468)" d="m0 0 12 1 17 4 23 11 27 12 15 7 7 4-2 7v9l1 5-28 14-19 10-6 3-5-1-24-12-17-9-16-8-7-5v-2h-2l-5-8-2-6 1-9 5-10 7-7z" fill="#FBFBF3"/>
<path transform="translate(126,459)" d="m0 0 24 10 37 17 31 14 7-1 8-2h15l16 5 9 7 1 1 27-1 35-2h16l13 5 5 5-26 14-18 13-6 8-5-1-17-7-24-10h-2v2l-9 6-10 3h-17l-10-4-4-4-7-1-15 8-23 11-12 6-10-5 4-3 17-9 32-16h2l-2-5v-9l2-7-17-8-33-15-24-11-24-5 5-4z" fill="#FCA704"/>
<path transform="translate(484,539)" d="m0 0 9 5 11 7 4-2 9-8 4 1 5 3v2l5 2 17 12 14 10 2 1 8 36 4 21v10l-6 12-5 1-6-3-8-10-6-16-6-36-17-13-14-11-4-3-5 1-27 14-9 5h-2l-2 6-13 30-7 12-10 10-8 6-5-1-2-3-1-8 2-16 4-15 13-23 10-16 8-5 20-10 11-6h3z" fill="#016D8B"/>
<path transform="translate(455,287)" d="m0 0h4l2 15 7 17 6 10 16 24-2 4 1 4 10 14v2l-23 1-20-8-11-4-33-7-23-10-25-11-2-2 22-12 39-20 19-10z" fill="#FBFBF3"/>
<path transform="translate(387,533)" d="m0 0 10 1 37 7h9l29-5 5-1 6 4-4 4-33 17-5 5-12 20-7 12-1 3-5-1-67-31-7-4 5-5 19-12 18-12z" fill="#FAFAF3"/>
<path transform="translate(501,559)" d="m0 0 4 1 26 20 9 7 6 37-4 2-6-1-8-4-4-1h-17l-9 3-5-1-39-17-3-1 3-9 7-15 33-17z" fill="#FAFBF3"/>
<path transform="translate(384,509)" d="m0 0 20 5h6l1 1 1-2 4 1h-2v2l14 1 4 2h19l10-2 7-4 2 1-5 3-1 3h2l6 8v2l3 1v2l4 2-3 1-26 5-7 1h-9l-42-8h-5l-32 21-18 12-11 4-9 1-4-2-1-6 5-10 6-7 4-5 19-13 16-9 16-8z" fill="#016D8B"/>
<path transform="translate(637,495)" d="m0 0h6l28 13 18 8 16 13 10 10 2 5-5 3-5 1h-11l-16-7-24-12-15-8h-8l-60 9h-7l-5 1 4-4-7-12v-4l-3-1 3-1 28-5z" fill="#016D8B"/>
<path transform="translate(611,429)" d="m0 0h17l26 8 12 7 3 3-2 5-6 4h-26l-37-2-8 8-9 11-12 14-14 17-1 5-2-1v-4l-5-1-12-9-4-2 4-7 13-15 9-11 12-14 7-8 4-5 2-1z" fill="#016D8B"/>
<path transform="translate(473,391)" d="m0 0h19l15 15 7 8 5 8 5 7v27l-1 30 1 2-29-2-1-1v-13l1-40-4-2-11-12-3-4-26-4-6-4-7-6-1-4 3-2 18-2z" fill="#017E9C"/>
<path transform="translate(451,604)" d="m0 0 5 1 30 13 9 4 6-1 6-2h17l8 3 6 3 8-1 3 10-4 3v7l-3 6-9 6-13 3h-9l-9-2-6 1-42 22-15 8-14 7h-3l-9-4 3-3 28-15 22-11 22-12 2-2-3-5v-9l2-4-36-16-5-3 2-6z" fill="#FCA704"/>
<path transform="translate(589,409)" d="m0 0 8 1 9 3-2 4-14 11-2 3-8 2-7 8-12 14-9 11-12 14-8 10-5-1-5-3 1-30 1-13 46-23 18-10z" fill="#FAFBF3"/>
<path transform="translate(526,382)" d="m0 0 7 1 31 13 16 7 1 2-44 22-11 5h-2l-4-7-6-10-7-7-7-8-6-7-7-2v-5h9l9 1 3 3 6 1 8-3z" fill="#FAFBF3"/>
<path transform="translate(292,361)" d="m0 0h12l5 2v2l5 2 3 4-1 7-4 4h-2l6 8 48 48v2h2l7 8 11 11 2 1 1 12-9-6-10-8-8-8v-2l-4-2-13-14-7-6v-2l-4-2-4-4v-2l-4-2-4-4v-2l-4-2-4-4v-2l-4-2-4-4v-2l-4-2-3-4-6-1-10 12-6 8-9-2-2-2 8-10 10-12-1-10 4-5z" fill="#FCA604"/>
<path transform="translate(469,720)" d="m0 0 6 2 11 4 18 3 8 1-2 2 2 2h-2l-1 37 10 1 1 4h-18l-20-4-7-3v-3l-4-1 5-3-6-9-1-9z" fill="#FC8712"/>
<path transform="translate(438,569)" d="m0 0h3l1 2 3-1 1 2 2-1 3 7 1 17v3l-1 7-8 16-5 8-9 9-8 6-5-1-2-3-1-8 2-16 4-15 13-23z" fill="#016D8B"/>
<path transform="translate(656,502)" d="m0 0 9 3 24 11 16 13 10 10 2 5-5 3-5 1h-11l-16-7-24-12-14-8 2-1h3v-8l7-8h2z" fill="#016D8B"/>
<path transform="translate(302,588)" d="m0 0h10l37 3 16 4 12 5 6 5 4 8 3 15 11 12 2 5v14l-6 14-4 7-9-5-4-2h4l2-5 5-10v-14l-9-8-4-6-4-19-1-3-5-2-12-4-48-4-6-1z" fill="#FDA804"/>
<path transform="translate(360,336)" d="m0 0 6 2 27 12 19 8 36 8 26 10 2 1 24-1 5 10v1h-9l-9-1v5l-13 1-1-2 1-4-31-12-32-6-17-7-25-11-17-8 4-4z" fill="#FCA704"/>
<path transform="translate(611,429)" d="m0 0h17l26 8 12 7 3 3-2 5-6 4h-26l-33-2-4-1v-2h8l-3-3-2-1 1-9 3-1v-2l4-2v-1h-8v-2z" fill="#016D8B"/>
<path transform="translate(565,583)" d="m0 0 2 2 7 33 2 11v10l-6 12-5 1-6-3-8-10-6-16-4-25v-6l4 3h5l1 4-3 9h-3l2 6 2-1v-5h5l2-5 2-3h2l1-4 3-4h2z" fill="#016D8B"/>
<path transform="translate(326,517)" d="m0 0h29l6 3-4 4-16 9-16 12-5-1-21-9-11-5-9-4-2-1 1-5z" fill="#FBFBF3"/>
<path transform="translate(495,432)" d="m0 0 4 1v2l4 2 1 3h2v2h2l4 5 5 5 4 3 2-1v32l1 2-29-2-1-1v-13z" fill="#016D8B"/>
<path transform="translate(410,492)" d="m0 0 5 2 12 6 7 3 9 2 8 2 5-1 2-1v-9l10 4 9 4v2l3 1-16 9-3 2-10 2h-19l-6-2-10-1-2-1v-2l-2-1-1 3-6-3-3-2v-3l3-3 1-9 4-2z" fill="#055773"/>
<path transform="translate(535,356)" d="m0 0 4 2-2 4-10 15-3 10-6 4-5 1-6-2-5-8-5-9-10-13v-3z" fill="#055672"/>
<path transform="translate(498,268)" d="m0 0 6 1 1 1v5l-3 4v8l4 5 4 2h8l5-3 3-6-1-7-2-3v-6l1-1h5l5 5 2 5v9l-5 10-8 6-7 2-10-1-9-6-5-7-1-3v-10l4-8z" fill="#012A3F"/>
<path transform="translate(237,509)" d="m0 0h9l10 3 7 6 1 6-3 5-9 4h-12l-12-5-5-6-1-5 4-5 5-2z" fill="#FDA804"/>
<path transform="translate(473,391)" d="m0 0h13l-1 6-3 6h-2l-1 5-2 4h-13l-13-2-6-4-7-6-1-4 3-2 18-2z" fill="#016B89"/>
<path transform="translate(348,558)" d="m0 0 9 3 15 7 17 8 29 13 6 3-2 5-1 3-5-1-67-31-7-4 5-5z" fill="#FCA704"/>
<path transform="translate(444,420)" d="m0 0h9l12 4 10 6v2l5 1 15 1 1 1-1 37-1 14-2-3-3-21-5-12-4-6v-2h-2v-2h-2l-5-5-11-7-12-5-4-2z" fill="#FCA305"/>
<path transform="translate(546,622)" d="m0 0 4 2 2-1 12 3 7 1 5 2v10l-6 12-5 1-6-3-8-10-5-13z" fill="#055875"/>
<path transform="translate(561,571)" d="m0 0 3 1 2 11v9l-5 5-1 3h-2l-2 5-2 3h-2l-1 2-1-1-1 5-2 2-2-4v-4h3l1-8 1-4-5-1-1 2-2-5h-2l-1-6 6-3h2v-2l7-4 4-1 1-2 1-1z" fill="#017E9C"/>
<path transform="translate(324,546)" d="m0 0 4 2 17 8 1 2 2 1-7 6-11 5-8 2-7-1-3-3 1-7 6-9z" fill="#055875"/>
<path transform="translate(299,476)" d="m0 0h5l8 3 13 3 3 2h5l-2 2-35 9h-8l-4-2 1-7 7-7 5-2z" fill="#055975"/>
<path transform="translate(234,506)" d="m0 0h15l11 4 7 6 2 6-3 7-6 4-12 3-11-1-12-5-7-6-1-2v-6l5-6 7-3zm3 3-8 2-5 3-2 3 1 5 5 6 12 5h12l9-4 3-5-1-6-7-6-10-3z" fill="#FCFCF3"/>
<path transform="translate(512,629)" d="m0 0h11l6 3 3 3v5l-6 5-3 1h-13l-6-4-2-2v-5l5-4z" fill="#FDA804"/>
<path transform="translate(415,619)" d="m0 0 1 3 17 2 6 2-2 4-8 8-8 6-5-1-2-3-1-8 1-12z" fill="#055875"/>
<path transform="translate(554,534)" d="m0 0 7 1 5 5-1 7-4 3-3 1h-12l-6-3-3-5 2-4 14-4z" fill="#023E5A"/>
<path transform="translate(582,431)" d="m0 0h27v3l-4 1v2l-2 1-2 9 7 2v1l7 1v1h-13l-6-1v-2l-4-2-9-12z" fill="#017D9B"/>
<path transform="translate(706,532)" d="m0 0 4 2 7 8-1 3-9 3h-11l-12-5v-2l10-4h2l1-2 7-1z" fill="#055874"/>
<path transform="translate(659,441)" d="m0 0 5 2 5 4-2 5-6 4h-26l-4-2 13-1v-2h2v-2z" fill="#055875"/>
<path transform="translate(485,453)" d="m0 0 3 3 3 10 3 22h-2l-2 6-6 11h-2l1-14 3-27z" fill="#016C8A"/>
<path transform="translate(806,486)" d="m0 0 10 1 5 4-1 5-3 3-5 2h-7l-5-3-2-6 5-5z" fill="#FDA804"/>
<path transform="translate(481,443)" d="m0 0 14 1v28l-1 14-2-3-3-21-5-12-3-5z" fill="#F3F7F3"/>
<path transform="translate(510,627)" d="m0 0h15l8 4 3 7-3 6-5 3-4 1h-16l-5-5v-2l-5-2 1-7 8-4zm2 2-8 4-2 2v5l6 5 2 1h13l6-3 3-3v-5l-6-5-3-1z" fill="#FCFCF3"/>
<path transform="translate(641,497)" d="m0 0 5 1 10 5-5 6-3 3v10l-12-2 4-1v-21z" fill="#017E9C"/>
<path transform="translate(448,566)" d="m0 0 6 4 5 6h2v6l-8 18h-3v-6l1-1-1-15-2-4z" fill="#017D9B"/>
<path transform="translate(805,484)" d="m0 0h11l7 4 2 3v5l-7 6-3 1h-11l-8-5-1-1v-7l5-4zm1 2-6 3-2 5 3 5 4 2h7l6-3 3-3-1-5-4-3z" fill="#FCFCF3"/>
<path transform="translate(520,426)" d="m0 0 4 3v13l-2-2-1-2-9-2-5-3h-6v-3l3-1 16-1z" fill="#016D8B"/>
<path transform="translate(541,592)" d="m0 0 4 3h5l1 4-3 9h-3l2 8-1 2h-2l-3-20z" fill="#016F8D"/>
<path transform="translate(496,269)" d="m0 0 2 1-2 6 3 2v6h-2l-1 5-2-1-2 3-1-3v-10l4-8z" fill="#023E58"/>
<path transform="translate(498,268)" d="m0 0 6 1 1 1v5l-4 4-6-2 2-7z" fill="#023147"/>
<path transform="translate(496,396)" d="m0 0 7 6 13 14 3 6-1 2-2-5h-2l-4-6-4-2-2-5-8-8z" fill="#01718F"/>
<path transform="translate(434,575)" d="m0 0 3 1-2 6-3 1-2 6-2 1-1 2h-2l2-5z" fill="#017795"/>
<path transform="translate(444,562)" d="m0 0 2 3 1 6-2 2v-3h-2l-1 2h-3l-1-4h3l2-5z" fill="#017E9C"/>
<path transform="translate(292,373)" d="m0 0 4 2h7l5-2-1 4-2 1h-9l-4-2z" fill="#FCFCF3"/>
<path transform="translate(539,539)" d="m0 0 4 1v5h2l-1 2-4 1-3-5z" fill="#044B66"/>
<path transform="translate(397,502)" d="m0 0 10 3-3 3h-2l-1 2-5-5h2z" fill="#03627F"/>
<path transform="translate(640,495)" d="m0 0 5 1 11 5v2l-4-1-8-4-4-1z" fill="#017391"/>
</svg>
