<svg width="16" height="16" viewBox="0 0 16 16" fill="none" xmlns="http://www.w3.org/2000/svg">
<path d="M7.33333 6H10C10.3536 6 10.6928 5.85952 10.9428 5.60948C11.1929 5.35943 11.3333 5.02029 11.3333 4.66667V2M7.33333 6C7.33333 6.73638 6.73638 7.33333 6 7.33333C5.26362 7.33333 4.66667 6.73638 4.66667 6C4.66667 5.26362 5.26362 4.66667 6 4.66667C6.73638 4.66667 7.33333 5.26362 7.33333 6ZM4.66667 14V11.3333C4.66667 10.9797 4.80714 10.6406 5.05719 10.3905C5.30724 10.1405 5.64638 10 6 10H8.66667M8.66667 10C8.66667 10.7364 9.26362 11.3333 10 11.3333C10.7364 11.3333 11.3333 10.7364 11.3333 10C11.3333 9.26362 10.7364 8.66667 10 8.66667C9.26362 8.66667 8.66667 9.26362 8.66667 10ZM3.33333 2H12.6667C13.403 2 14 2.59695 14 3.33333V12.6667C14 13.403 13.403 14 12.6667 14H3.33333C2.59695 14 2 13.403 2 12.6667V3.33333C2 2.59695 2.59695 2 3.33333 2Z" stroke="#111827" stroke-width="1.33" stroke-linecap="round" stroke-linejoin="round"/>
</svg>
