<svg width="205" height="57" viewBox="0 0 205 57" xmlns="http://www.w3.org/2000/svg">
<path d="M15.5978 32.5978C14.3697 31.3698 13.6867 29.7439 13.6754 28.0199C13.6651 26.2935 14.326 24.6757 15.5375 23.4625C16.7481 22.2507 18.3627 21.5894 20.0868 21.6014C20.4405 21.6037 20.8136 21.645 21.2616 21.7301C21.3773 21.7535 21.503 21.7845 21.6277 21.8163C21.8793 21.8827 22.1267 21.9598 22.3784 22.0541C22.5074 22.1028 22.6349 22.1518 22.7633 22.211C22.9934 22.3188 23.2341 22.451 23.4712 22.6027L23.6204 22.6872C23.6484 22.7025 23.676 22.7163 23.7023 22.7328L24.8163 23.6991C24.9458 23.8396 25.0729 24.0047 25.2056 24.1784L25.2334 24.2148C25.2814 24.2738 25.3203 24.3173 25.3604 24.3614C25.3747 24.3769 25.3896 24.3918 25.4022 24.409L25.4391 24.4615L25.4798 24.5051C25.5549 24.5842 25.6295 24.6617 25.7054 24.7376C27.4648 26.497 29.9427 27.4948 32.5039 27.4738C35.0568 27.4531 37.4858 26.4181 39.1672 24.635L39.2157 24.5836L39.2551 24.5244C39.2991 24.4587 39.3536 24.4019 39.4061 24.3418C39.449 24.2936 39.492 24.2448 39.5346 24.1922L39.6588 24.0365C39.7313 23.9429 39.8048 23.8478 39.887 23.7615L40.9089 22.8775L40.9373 22.862L40.9563 22.843C40.9838 22.8266 41.1479 22.7379 41.1479 22.7379C41.4501 22.5526 41.6784 22.4283 41.8924 22.3313C42.0108 22.2783 42.1371 22.2333 42.2669 22.1859C42.5047 22.0977 42.7574 22.0203 43.0268 21.9533L43.0685 21.9431C43.1738 21.9173 43.2784 21.8916 43.3886 21.8708C43.8318 21.7923 44.2027 21.7558 44.55 21.7586C46.2764 21.77 47.9031 22.4522 49.132 23.6811C50.3601 24.9092 51.0425 26.535 51.0545 28.2602C51.0765 31.8207 48.1957 34.6987 44.6355 34.6751C44.2824 34.6735 43.9017 34.6315 43.4702 34.5457C43.3505 34.5246 43.2548 34.4987 43.1556 34.4728L43.1018 34.4582C42.8339 34.3889 42.5816 34.3091 42.354 34.2234C42.2192 34.1729 42.0938 34.1248 41.9732 34.0688C41.7373 33.9599 41.5009 33.8303 41.2473 33.6707C41.1937 33.6378 41.1432 33.6099 41.0934 33.5814C41.0634 33.5641 41.0319 33.5476 41.0019 33.5292L39.9127 32.5807C39.7901 32.4455 39.6692 32.2905 39.5424 32.1274L39.4877 32.0571C39.4464 32.0042 39.4049 31.9587 39.366 31.914C39.3499 31.8962 39.3326 31.8789 39.3183 31.8594L39.2884 31.8209L39.2471 31.7727C39.174 31.6938 39.0998 31.6167 39.0235 31.5404C37.2635 29.7804 34.7854 28.7824 32.2256 28.8025C29.6721 28.8227 27.242 29.8576 25.5588 31.6407L25.5098 31.6927L25.4689 31.7516C25.4293 31.8129 25.3785 31.8678 25.3309 31.9229C25.2811 31.9798 25.2335 32.0361 25.1857 32.0951C25.148 32.1416 25.1001 32.2017 25.0532 32.2621C24.9858 32.3464 24.9213 32.4308 24.8475 32.5076L23.7851 33.4232C23.7544 33.4428 23.7197 33.4606 23.685 33.4795L23.5707 33.5424C23.2982 33.7125 23.0598 33.8428 22.8348 33.945C22.7164 33.998 22.5857 34.0445 22.4528 34.0933C22.2144 34.1809 21.968 34.2565 21.7036 34.321C21.5775 34.3525 21.4592 34.3819 21.342 34.4038C20.8838 34.485 20.5231 34.5208 20.172 34.5171C18.4471 34.5054 16.8235 33.8236 15.5978 32.5978Z" />
<path d="M31.5025 56C29.7657 56 28.1326 55.3233 26.9042 54.0948C25.6766 52.8683 25 51.2359 25 49.499C25 47.7628 25.675 46.1317 26.9013 44.9065C28.1305 43.6767 29.7644 43 31.5017 43C33.2364 43 34.8686 43.6754 36.0941 44.9023C37.3234 46.1308 38 47.7641 38 49.5002C38 51.2372 37.3238 52.8696 36.0954 54.0981C34.8686 55.3241 33.2372 56 31.5025 56Z" />
<path d="M31.5025 13C29.7657 13 28.1326 12.3233 26.9042 11.0948C25.6766 9.86832 25 8.23594 25 6.49897C25 4.76283 25.675 3.13167 26.9013 1.90645C28.1305 0.676683 29.7644 0 31.5017 0C33.2364 0 34.8686 0.675438 36.0941 1.90231C37.3234 3.13084 38 4.76406 38 6.50021C38 8.23718 37.3238 9.86956 36.0954 11.0981C34.8686 12.3241 33.2372 13 31.5025 13Z" />
<path d="M43 53C43 54.1046 43.8954 55.0047 44.9999 55.0168C47.9924 55.0498 50.9354 55.0375 53.7151 53.9067C57.1123 52.5247 60.1989 50.499 62.799 47.9454C65.399 45.3918 67.4615 42.3602 68.8686 39.0238C70.2758 35.6873 71 32.1114 71 28.5C71 24.8886 70.2758 21.3127 68.8686 17.9762C67.4615 14.6398 65.399 11.6082 62.799 9.05456C60.1989 6.50095 57.1123 4.47532 53.7151 3.09331C50.9349 1.96227 47.9914 1.28046 44.9984 1.07013C43.8965 0.992693 43 1.89543 43 3L43 12C43 13.1046 43.9105 14.0092 44.9597 14.3543C46.1243 14.7374 47.2661 15.3526 48.3576 15.7967C50.0561 16.4877 51.5995 17.5005 52.8995 18.7773C54.1995 20.0541 55.2307 21.5699 55.9343 23.2381C56.6379 24.9063 57 26.6943 57 28.5C57 30.3057 56.6379 32.0937 55.9343 33.7619C55.2307 35.4301 54.1995 36.9459 52.8995 38.2227C51.5995 39.4995 50.0561 40.5123 48.3576 41.2033C47.2767 41.6431 46.1464 41.947 44.9935 42.1099C43.8998 42.2644 43 43.1454 43 44.25L43 53Z" />
<path d="M186.498 56.4227C184.09 56.4227 181.923 55.8207 179.996 54.6166C178.07 53.3644 176.552 51.6787 175.445 49.5595C174.337 47.4404 173.783 45.0563 173.783 42.4074V3.94687C173.783 2.88728 174.12 2.02035 174.794 1.34608C175.469 0.671796 176.336 0.334656 177.395 0.334656C178.455 0.334656 179.322 0.671796 179.996 1.34608C180.67 2.02035 181.007 2.88728 181.007 3.94687V42.4074C181.007 44.3339 181.537 45.9473 182.597 47.2477C183.656 48.5481 184.957 49.1983 186.498 49.1983H188.954C189.821 49.1983 190.544 49.5355 191.122 50.2097C191.748 50.884 192.061 51.7509 192.061 52.8105C192.061 53.8701 191.651 54.737 190.833 55.4113C190.062 56.0856 189.051 56.4227 187.798 56.4227H186.498ZM170.46 24.563C169.448 24.563 168.63 24.2741 168.004 23.6961C167.377 23.1182 167.064 22.3957 167.064 21.5288C167.064 20.5655 167.377 19.7949 168.004 19.217C168.63 18.639 169.448 18.35 170.46 18.35H187.148C188.16 18.35 188.978 18.639 189.605 19.217C190.231 19.7949 190.544 20.5655 190.544 21.5288C190.544 22.3957 190.231 23.1182 189.605 23.6961C188.978 24.2741 188.16 24.563 187.148 24.563H170.46Z" />
<path d="M147.067 56.7117C143.551 56.7117 140.396 55.8448 137.603 54.1109C134.809 52.3289 132.594 49.9448 130.956 46.9587C129.367 43.9245 128.572 40.5049 128.572 36.7C128.572 32.8952 129.439 29.4756 131.173 26.4414C132.955 23.4071 135.339 21.023 138.325 19.2892C141.359 17.5072 144.755 16.6161 148.512 16.6161C152.268 16.6161 155.64 17.5072 158.626 19.2892C161.612 21.023 163.972 23.4071 165.706 26.4414C167.488 29.4756 168.379 32.8952 168.379 36.7H165.561C165.561 40.5049 164.743 43.9245 163.105 46.9587C161.516 49.9448 159.324 52.3289 156.531 54.1109C153.737 55.8448 150.583 56.7117 147.067 56.7117ZM148.512 50.2097C150.968 50.2097 153.159 49.6318 155.086 48.4759C157.012 47.2718 158.53 45.6583 159.637 43.6355C160.745 41.5645 161.299 39.2527 161.299 36.7C161.299 34.0992 160.745 31.7874 159.637 29.7646C158.53 27.6936 157.012 26.0801 155.086 24.9242C153.159 23.7202 150.968 23.1181 148.512 23.1181C146.104 23.1181 143.912 23.7202 141.937 24.9242C140.011 26.0801 138.47 27.6936 137.314 29.7646C136.206 31.7874 135.652 34.0992 135.652 36.7C135.652 39.2527 136.206 41.5645 137.314 43.6355C138.47 45.6583 140.011 47.2718 141.937 48.4759C143.912 49.6318 146.104 50.2097 148.512 50.2097ZM164.694 56.495C163.635 56.495 162.744 56.1578 162.021 55.4835C161.347 54.7611 161.01 53.8701 161.01 52.8105V41.7571L162.383 34.0993L168.379 36.7V52.8105C168.379 53.8701 168.018 54.7611 167.295 55.4835C166.621 56.1578 165.754 56.495 164.694 56.495Z" />
<path d="M104.939 56.7117C101.183 56.7117 97.7872 55.8448 94.753 54.1109C91.7669 52.3289 89.3828 49.9208 87.6008 46.8865C85.8669 43.8522 85 40.4327 85 36.6278C85 32.823 85.7947 29.4275 87.3841 26.4414C89.0216 23.4071 91.2371 21.0231 94.0305 19.2892C96.824 17.5072 99.9786 16.6162 103.495 16.6162C106.336 16.6162 108.961 17.2182 111.369 18.4223C113.777 19.5782 115.8 21.1676 117.438 23.1904V3.68446C117.438 2.57671 117.775 1.6857 118.449 1.01142C119.172 0.33714 120.063 0 121.122 0C122.23 0 123.121 0.33714 123.795 1.01142C124.469 1.6857 124.807 2.57671 124.807 3.68446V36.6278C124.807 40.4327 123.916 43.8522 122.134 46.8865C120.4 49.9208 118.04 52.3289 115.054 54.1109C112.068 55.8448 108.696 56.7117 104.939 56.7117ZM104.939 50.2097C107.396 50.2097 109.587 49.6318 111.514 48.4759C113.44 47.2718 114.957 45.6343 116.065 43.5633C117.173 41.4923 117.727 39.1805 117.727 36.6278C117.727 34.027 117.173 31.7152 116.065 29.6924C114.957 27.6695 113.44 26.0802 111.514 24.9243C109.587 23.7202 107.396 23.1182 104.939 23.1182C102.531 23.1182 100.34 23.7202 98.3652 24.9243C96.4387 26.0802 94.8975 27.6695 93.7416 29.6924C92.6338 31.7152 92.0799 34.027 92.0799 36.6278C92.0799 39.1805 92.6338 41.4923 93.7416 43.5633C94.8975 45.6343 96.4387 47.2718 98.3652 48.4759C100.34 49.6318 102.531 50.2097 104.939 50.2097Z" />
</svg>
